<svg xmlns="http://www.w3.org/2000/svg" width="31" height="31" viewBox="0 0 31 31">
    <g fill="#FFF">
        <path d="M28.615 11.913l-2.117-.359c-.22-.712-.504-1.398-.85-2.054l1.247-1.745c.529-.743.447-1.757-.202-2.4l-1.877-1.877c-.353-.353-.82-.548-1.317-.548-.39 0-.762.12-1.077.346L20.67 4.523c-.68-.359-1.392-.655-2.13-.875l-.352-2.092C18.037.656 17.262 0 16.348 0h-2.652c-.913 0-1.688.655-1.84 1.556l-.365 2.142c-.705.22-1.392.51-2.047.863L7.71 3.314c-.315-.227-.693-.347-1.083-.347-.498 0-.97.196-1.317.548L3.427 5.393c-.642.642-.73 1.657-.201 2.4l1.26 1.77c-.347.662-.624 1.349-.838 2.06l-2.092.353c-.9.152-1.556.926-1.556 1.84v2.652c0 .914.655 1.689 1.556 1.84l2.142.365c.22.706.51 1.393.863 2.048l-1.24 1.726c-.53.743-.448 1.758.2 2.4L5.4 26.725c.353.352.82.548 1.317.548.39 0 .762-.12 1.077-.347l1.77-1.26c.637.334 1.304.605 1.991.82l.353 2.116c.151.901.926 1.556 1.84 1.556h2.658c.914 0 1.689-.655 1.84-1.556l.359-2.117c.712-.22 1.398-.504 2.054-.85l1.745 1.247c.315.227.693.347 1.083.347.498 0 .964-.196 1.317-.548l1.877-1.878c.643-.642.731-1.657.202-2.4l-1.247-1.752c.346-.661.636-1.348.85-2.053l2.117-.353c.9-.151 1.556-.926 1.556-1.84v-2.652c.013-.914-.643-1.688-1.543-1.84zm-.145 4.492c0 .082-.057.151-.139.164l-2.646.441c-.334.057-.598.302-.68.624-.24.926-.605 1.814-1.097 2.64-.17.29-.157.648.038.926l1.556 2.192c.044.063.038.157-.019.214l-1.877 1.878c-.044.044-.088.05-.12.05-.037 0-.069-.013-.094-.032l-2.186-1.556c-.271-.195-.637-.208-.926-.037-.826.491-1.714.856-2.64 1.096-.328.082-.573.353-.624.68l-.447 2.646c-.013.082-.082.139-.164.139h-2.652c-.082 0-.151-.057-.164-.139l-.44-2.646c-.058-.334-.303-.598-.625-.68-.9-.233-1.77-.592-2.583-1.059-.132-.075-.283-.113-.428-.113-.17 0-.347.05-.491.157l-2.205 1.57c-.032.018-.063.03-.095.03-.025 0-.076-.006-.12-.05l-1.877-1.877c-.057-.057-.063-.145-.019-.214l1.55-2.174c.195-.277.208-.642.038-.932-.492-.82-.87-1.708-1.11-2.634-.087-.32-.352-.567-.68-.623l-2.664-.454c-.082-.013-.139-.082-.139-.164v-2.652c0-.082.057-.151.139-.164l2.627-.44c.334-.058.604-.303.686-.63.233-.927.593-1.822 1.078-2.647.17-.29.15-.649-.044-.92L4.617 6.81c-.043-.063-.037-.157.02-.214L6.514 4.72c.044-.044.088-.05.12-.05.038 0 .07.012.094.03l2.174 1.55c.277.196.642.209.932.038.82-.49 1.708-.869 2.634-1.108.321-.089.567-.353.623-.68l.454-2.666c.013-.082.082-.138.164-.138h2.652c.082 0 .151.056.164.138l.44 2.627c.058.334.303.605.63.687.952.24 1.86.611 2.704 1.109.29.17.648.157.926-.038l2.173-1.562c.032-.02.063-.032.095-.032.025 0 .075.007.12.05l1.877 1.878c.056.057.063.145.019.214l-1.556 2.186c-.196.271-.208.637-.038.926.491.826.857 1.714 1.096 2.64.082.328.353.573.68.624l2.646.447c.082.013.139.082.139.164v2.652h-.006z"/>
        <path d="M15.082 8.568c-3.59 0-6.508 2.917-6.508 6.508s2.917 6.508 6.508 6.508 6.508-2.917 6.508-6.508-2.917-6.508-6.508-6.508zm0 11.315c-2.652 0-4.807-2.155-4.807-4.807 0-2.652 2.155-4.807 4.807-4.807 2.652 0 4.807 2.155 4.807 4.807 0 2.652-2.155 4.807-4.807 4.807z"/>
    </g>
</svg>
