<svg xmlns="http://www.w3.org/2000/svg" width="30" height="24" viewBox="0 0 30 24">
    <g fill="#FFF">
        <path d="M29.836.584c-.016-.308-.27-.553-.582-.553H.583C.27.031.016.276 0 .584L0 .614v22.144c0 .322.261.583.583.583h28.671c.322 0 .583-.261.583-.583V.614v-.03zm-1.165 21.591H1.165V5.045h27.506v17.13zm0-18.297H1.165V1.19h27.506v2.688z"/>
        <path d="M9.965 3.157H5.303c-.322 0-.583-.26-.583-.583 0-.322.261-.582.583-.582h4.662c.322 0 .583.26.583.582 0 .322-.261.583-.583.583zM2.973 3.157c-.322 0-.583-.26-.583-.583 0-.322.26-.582.583-.582.322 0 .583.26.583.582 0 .322-.26.583-.583.583zM23.477 10.909l-.02-.022c-2.286-2.269-5.318-3.518-8.539-3.518-3.166 0-6.161 1.213-8.434 3.417l-.022.022c-2.364 2.301-3.665 5.385-3.665 8.686 0 .322.261.583.583.583h4.254c.322 0 .583-.261.583-.583 0-1.853.74-3.578 2.082-4.857 1.25-1.191 2.891-1.847 4.62-1.847 1.775 0 3.448.687 4.71 1.935 1.284 1.27 1.991 2.963 1.991 4.769 0 .322.261.583.583.583h4.254c.321 0 .583-.261.583-.583 0-3.247-1.266-6.294-3.563-8.585zM7.072 18.91H3.978c.133-2.58 1.153-4.987 2.914-6.878l2.186 2.187c-1.181 1.304-1.88 2.936-2.006 4.69zm7.846-7.287c-1.837 0-3.591.632-4.997 1.79l-2.19-2.19c1.993-1.738 4.524-2.69 7.187-2.69 2.715 0 5.282.983 7.291 2.779l-2.189 2.19c-1.422-1.215-3.212-1.879-5.102-1.879zm7.847 7.287c-.124-1.706-.79-3.3-1.916-4.588l2.188-2.189c1.704 1.877 2.69 4.246 2.822 6.777h-3.094z"/>
        <path d="M14.86 20.077c-.149 0-.298-.057-.412-.171l-3.263-3.264c-.228-.228-.228-.597 0-.825.227-.227.596-.227.824 0l3.263 3.265c.228.227.228.596 0 .824-.114.114-.263.17-.412.17z"/>
    </g>
</svg>
