<svg xmlns="http://www.w3.org/2000/svg" width="24" height="27" viewBox="0 0 24 27">
    <g fill="#D0021B">
        <path d="M22.861 3.81h-5.508v-.898C17.353 1.306 16.047 0 14.44 0H9.204C7.6 0 6.292 1.306 6.292 2.912v.898H.784c-.408 0-.735.327-.735.735s.327.735.735.735h1.328v17.266c0 2.166 1.764 3.93 3.93 3.93h11.561c2.167 0 3.93-1.764 3.93-3.93V5.28h1.328c.409 0 .735-.327.735-.735s-.326-.735-.735-.735zM7.762 2.912c0-.795.648-1.442 1.442-1.442h5.237c.795 0 1.442.647 1.442 1.442v.898H7.762v-.898zm12.302 19.634c0 1.355-1.105 2.46-2.46 2.46H6.041c-1.355 0-2.46-1.105-2.46-2.46V5.28h16.487v17.266h-.005z"/>
        <path d="M11.823 22.372c.408 0 .734-.327.734-.735V8.649c0-.408-.326-.735-.734-.735-.409 0-.735.327-.735.735v12.982c0 .409.326.74.735.74zM7.027 21.56c.408 0 .735-.326.735-.734V9.455c0-.408-.327-.735-.735-.735s-.735.327-.735.735v11.37c0 .409.332.736.735.736zM16.618 21.56c.408 0 .735-.326.735-.734V9.455c0-.408-.327-.735-.735-.735s-.735.327-.735.735v11.37c0 .409.327.736.735.736z"/>
    </g>
</svg>
