<svg xmlns="http://www.w3.org/2000/svg" width="36" height="29" viewBox="0 0 36 29">
    <g fill="#FFF">
        <path d="M17.638 7.035c-3.9 0-6.323 1.997-6.323 5.232 0 .368.298.666.666.666h11.315c.368 0 .666-.298.666-.666 0-3.228-2.423-5.232-6.324-5.232zm-4.945 4.566c.44-2.988 3.854-3.234 4.945-3.234 1.092 0 4.507.246 4.946 3.234h-9.891zM17.638.047c-1.746 0-3.161 1.415-3.161 3.161.003 1.745 1.417 3.158 3.161 3.162 1.747 0 3.162-1.416 3.162-3.162S19.385.047 17.638.047zm0 4.992c-1.01 0-1.83-.82-1.83-1.83 0-1.012.82-1.831 1.83-1.831 1.011 0 1.83.82 1.83 1.83 0 1.011-.819 1.83-1.83 1.83zM6.323 22.344c-3.9 0-6.323 1.997-6.323 5.232 0 .367.298.665.666.665H11.98c.367 0 .665-.298.665-.665 0-3.228-2.422-5.232-6.323-5.232zM1.378 26.91c.44-2.988 3.847-3.235 4.945-3.235 1.098 0 4.506.247 4.946 3.235H1.378zM6.323 15.355c-1.746 0-3.161 1.416-3.161 3.162.003 1.745 1.417 3.158 3.161 3.162 1.746 0 3.162-1.416 3.162-3.162s-1.416-3.162-3.162-3.162zm0 4.992c-1.01 0-1.83-.82-1.83-1.83 0-1.01.82-1.83 1.83-1.83 1.011 0 1.83.82 1.83 1.83 0 1.01-.819 1.83-1.83 1.83zM28.954 22.344c-3.9 0-6.324 1.997-6.324 5.232 0 .367.298.665.666.665h11.315c.368 0 .666-.298.666-.665 0-3.228-2.423-5.232-6.323-5.232zm-4.946 4.566c.44-2.988 3.847-3.235 4.946-3.235 1.098 0 4.506.247 4.945 3.235h-9.89zM28.954 15.355c-1.747 0-3.162 1.416-3.162 3.162.004 1.745 1.417 3.158 3.162 3.162 1.746 0 3.161-1.416 3.161-3.162s-1.415-3.162-3.161-3.162zm0 4.992c-1.011 0-1.83-.82-1.83-1.83 0-1.01.819-1.83 1.83-1.83 1.01 0 1.83.82 1.83 1.83 0 1.01-.82 1.83-1.83 1.83zM21.08 21.193l-2.776-2.79v-3.926c0-.368-.298-.666-.666-.666-.367 0-.665.298-.665.666v3.927l-2.776 2.775c-.263.26-.266.683-.006.946.259.262.682.265.945.006l2.502-2.51 2.503 2.51c.28.24.7.207.939-.072.213-.25.213-.617 0-.866z"/>
    </g>
</svg>
