<svg xmlns="http://www.w3.org/2000/svg" width="25" height="37" viewBox="0 0 25 37">
    <g>
        <path d="M22.378 2.419H15.12L16.209.967c.2-.267.146-.646-.121-.846-.267-.2-.646-.146-.846.12L13.608 2.42h-2.953L9.613.334C9.463.035 9.1-.085 8.8.064c-.299.149-.42.512-.27.811l.772 1.544H1.814c-1 0-1.814.814-1.814 1.814v30.24c0 1 .814 1.814 1.814 1.814h20.564c1 0 1.814-.814 1.814-1.814V4.233c0-1-.814-1.814-1.814-1.814zM1.814 3.629h8.094l.605 1.209c-.508.444-.836 1.088-.836 1.814 0 1.334 1.085 2.42 2.419 2.42s2.42-1.086 2.42-2.42c0-1.334-1.086-2.419-2.42-2.419-.174 0-.342.02-.506.055l-.33-.66h11.118c.333 0 .604.271.604.605v19.958h-4.928c-.184-.715-.662-1.327-1.336-1.664l-2.203-1.125v-.234c.985-.538 1.677-1.423 2.064-2.64.586-.31.96-.916.96-1.594v-.605c0-.56-.26-1.08-.696-1.42-.377-2.287-1.973-3.446-4.747-3.446-.131 0-.26.005-.385.015-.522.04-1.287-.002-1.95-.448-.247-.167-.434-.329-.553-.48-.203-.26-.544-.35-.848-.225-.303.125-.482.428-.444.754.026.227.064.49.121.778.117.59.117.59-.047.942-.062.134-.138.297-.227.516-.2.49-.343 1.028-.424 1.601-.43.341-.686.858-.686 1.413v.605c0 .678.374 1.284.96 1.595.387 1.216 1.08 2.102 2.064 2.639v.227l-2.28 1.124c-.651.355-1.105.967-1.274 1.672H1.21V4.233c0-.334.27-.605.604-.605zm9.273 2.358l.468.936c.106.212.32.334.542.334.09 0 .183-.02.27-.064.298-.149.42-.512.27-.811l-.466-.932c.631.04 1.135.561 1.135 1.202 0 .667-.543 1.21-1.21 1.21-.667 0-1.21-.543-1.21-1.21 0-.245.075-.473.201-.665zm-.8 16.456c.365-.178.6-.555.6-.96v-1.091l-.366-.157c-.917-.396-1.514-1.15-1.823-2.307l-.087-.322-.318-.1c-.253-.078-.43-.313-.43-.572v-.605c0-.219.125-.422.327-.53l.283-.151.034-.32c.06-.567.186-1.09.376-1.554.08-.197.148-.344.204-.464.205-.44.28-.668.228-1.134.711.406 1.566.578 2.493.508.094-.007.19-.011.289-.011 2.264 0 3.37.82 3.585 2.66l.038.316.281.148c.202.108.329.312.329.532v.605c0 .259-.178.494-.431.573l-.318.099-.087.322c-.31 1.157-.906 1.911-1.823 2.307l-.365.158v1.095c0 .405.223.77.583.952l2.283 1.167c.26.13.467.337.598.585H7.394c.12-.253.315-.466.56-.598l2.334-1.151zm12.09 12.635H1.815c-.333 0-.604-.271-.604-.605v-9.072h21.772v9.072c0 .334-.27.605-.604.605z"/>
        <path d="M17.54 29.635H6.652c-.335 0-.605.27-.605.604 0 .335.27.605.605.605h10.886c.335 0 .605-.27.605-.605 0-.334-.27-.604-.605-.604zM9.072 28.425h6.048c.334 0 .605-.27.605-.605 0-.334-.27-.605-.605-.605H9.072c-.334 0-.605.27-.605.605 0 .335.27.605.605.605zM7.258 32.054h-.605c-.335 0-.605.27-.605.605 0 .334.27.604.605.604h.605c.334 0 .604-.27.604-.604 0-.335-.27-.605-.604-.605zM10.886 32.054h-1.21c-.334 0-.604.27-.604.605 0 .334.27.604.605.604h1.21c.334 0 .604-.27.604-.604 0-.335-.27-.605-.605-.605zM13.91 32.054h-.604c-.335 0-.605.27-.605.605 0 .334.27.604.605.604h.604c.335 0 .605-.27.605-.604 0-.335-.27-.605-.605-.605zM17.54 32.054h-1.21c-.335 0-.605.27-.605.605 0 .334.27.604.605.604h1.21c.334 0 .604-.27.604-.604 0-.335-.27-.605-.605-.605z"/>
    </g>
</svg>
