<svg xmlns="http://www.w3.org/2000/svg" width="26" height="25" viewBox="0 0 26 25">
    <g fill="none">
        <path fill="#ECEFF1" d="M24.8 20.85H13.6c-.442 0-.8-.358-.8-.8v-16c0-.441.358-.8.8-.8h11.2c.442 0 .8.359.8.8v16c0 .442-.358.8-.8.8z"/>
        <g fill="#388E3C">
            <path d="M4 1.6H.8c-.442 0-.8-.358-.8-.8C0 .36.358 0 .8 0H4c.442 0 .8.359.8.8 0 .442-.358.8-.8.8zM4 4.8H.8C.358 4.8 0 4.443 0 4c0-.441.358-.8.8-.8H4c.442 0 .8.359.8.8 0 .442-.358.8-.8.8zM4 8H.8C.358 8 0 7.643 0 7.2c0-.441.358-.8.8-.8H4c.442 0 .8.359.8.8 0 .442-.358.8-.8.8zM4 11.2H.8c-.442 0-.8-.358-.8-.8 0-.441.358-.8.8-.8H4c.442 0 .8.359.8.8 0 .442-.358.8-.8.8zM8.8 1.6H7.2c-.442 0-.8-.358-.8-.8 0-.441.358-.8.8-.8h1.6c.442 0 .8.359.8.8 0 .442-.358.8-.8.8zM8.8 4.8H7.2c-.442 0-.8-.358-.8-.8 0-.441.358-.8.8-.8h1.6c.442 0 .8.359.8.8 0 .442-.358.8-.8.8zM8.8 8H7.2c-.442 0-.8-.358-.8-.8 0-.441.358-.8.8-.8h1.6c.442 0 .8.359.8.8 0 .442-.358.8-.8.8zM8.8 11.2H7.2c-.442 0-.8-.358-.8-.8 0-.441.358-.8.8-.8h1.6c.442 0 .8.359.8.8 0 .442-.358.8-.8.8z" transform="translate(12.8 6.45)"/>
        </g>
        <path fill="#2E7D32" d="M14.11.235c-.182-.152-.427-.218-.657-.17l-12.8 2.4c-.38.07-.653.4-.653.786v17.6c0 .384.274.715.653.785l12.8 2.4c.048.01.097.015.147.015.186 0 .366-.064.51-.184.184-.152.29-.38.29-.616V.85c0-.239-.106-.464-.29-.616z"/>
        <path fill="#FAFAFA" d="M11.002 14.724l-2.53-2.891 2.558-3.29c.272-.348.208-.85-.139-1.123-.347-.272-.85-.208-1.123.14l-2.37 3.046-1.996-2.282c-.293-.336-.799-.366-1.128-.075-.333.291-.367.797-.076 1.128l2.2 2.515-2.23 2.867c-.272.35-.208.852.14 1.124.146.113.32.168.492.168.238 0 .474-.106.632-.31l2.04-2.623 2.326 2.657c.159.183.38.276.602.276.187 0 .374-.066.526-.199.333-.291.367-.797.076-1.128z"/>
    </g>
</svg>
